<svg xmlns="http://www.w3.org/2000/svg" xmlns:xlink="http://www.w3.org/1999/xlink" width="500" zoomAndPan="magnify" viewBox="0 0 375 374.999991" height="500" preserveAspectRatio="xMidYMid meet" version="1.2"><defs><clipPath id="c3cdcb0c92"><path d="M 31.472656 286 L 132 286 L 132 367 L 31.472656 367 Z M 31.472656 286 "/></clipPath><clipPath id="3a3986f8f3"><path d="M 309 144 L 337.472656 144 L 337.472656 170 L 309 170 Z M 309 144 "/></clipPath><clipPath id="5beffc66fc"><path d="M 31.472656 144 L 132 144 L 132 225 L 31.472656 225 Z M 31.472656 144 "/></clipPath><clipPath id="34f668494e"><path d="M 309 342 L 337.472656 342 L 337.472656 367 L 309 367 Z M 309 342 "/></clipPath></defs><g id="b1d28aecce"><g clip-rule="nonzero" clip-path="url(#c3cdcb0c92)"><path style=" stroke:none;fill-rule:nonzero;fill:#3c6e71;fill-opacity:1;" d="M 110.605469 330.65625 C 117.378906 325.355469 119.898438 319.957031 122.816406 313.710938 C 124.957031 309.121094 127.3125 304.089844 131.648438 298.273438 L 118.851562 307.054688 C 115.703125 309.214844 111.382812 308.410156 109.21875 305.257812 C 108.421875 304.101562 108.003906 302.75 108.003906 301.347656 C 108.003906 299.058594 109.128906 296.921875 111.011719 295.628906 L 123.808594 286.847656 C 116.824219 288.800781 111.28125 289.191406 106.226562 289.539062 C 99.347656 290.011719 93.398438 290.421875 85.980469 294.863281 L 36.125 329.085938 C 33.21875 331.078125 31.484375 334.464844 31.484375 338.132812 C 31.484375 340.585938 32.238281 342.980469 33.660156 345.046875 L 44.925781 361.464844 C 46.710938 364.0625 49.339844 365.851562 52.332031 366.496094 C 55.300781 367.136719 58.277344 366.574219 60.707031 364.90625 L 110.605469 330.65625 "/></g><path style=" stroke:none;fill-rule:nonzero;fill:#3c6e71;fill-opacity:1;" d="M 143.492188 281.738281 C 144.070312 282.585938 144.449219 283.539062 144.613281 284.535156 L 179.785156 260.390625 L 174.585938 256.832031 L 141.285156 279.691406 C 142.148438 280.195312 142.90625 280.886719 143.492188 281.738281 "/><path style=" stroke:none;fill-rule:nonzero;fill:#3c6e71;fill-opacity:1;" d="M 182.753906 251.226562 L 187.945312 254.792969 L 311.144531 170.230469 L 307.816406 165.386719 L 182.753906 251.226562 "/><g clip-rule="nonzero" clip-path="url(#3a3986f8f3)"><path style=" stroke:none;fill-rule:nonzero;fill:#3c6e71;fill-opacity:1;" d="M 318.84375 146.953125 C 316.46875 148.582031 315.921875 150.808594 315.222656 153.617188 C 314.390625 156.96875 313.457031 160.746094 309.144531 164.355469 L 312.582031 169.359375 C 317.5 166.640625 321.363281 167.121094 324.785156 167.550781 C 327.664062 167.914062 329.9375 168.199219 332.308594 166.570312 C 335.53125 164.355469 337.457031 160.695312 337.460938 156.777344 C 337.460938 154.378906 336.738281 152.0625 335.378906 150.074219 L 335.308594 149.972656 C 333.542969 147.410156 330.839844 145.652344 327.726562 145.070312 C 324.613281 144.492188 321.460938 145.160156 318.84375 146.953125 "/></g><path style=" stroke:none;fill-rule:nonzero;fill:#3c6e71;fill-opacity:1;" d="M 109.683594 301.347656 C 109.683594 302.410156 110 303.433594 110.605469 304.3125 C 112.242188 306.695312 115.515625 307.304688 117.902344 305.667969 L 140.75 289.988281 C 142.175781 289.007812 143.027344 287.390625 143.027344 285.652344 C 143.027344 284.59375 142.710938 283.566406 142.105469 282.6875 C 141.3125 281.535156 140.117188 280.757812 138.738281 280.5 C 137.359375 280.242188 135.964844 280.539062 134.808594 281.332031 L 111.960938 297.011719 C 110.535156 297.992188 109.683594 299.613281 109.683594 301.347656 "/><g clip-rule="nonzero" clip-path="url(#5beffc66fc)"><path style=" stroke:none;fill-rule:nonzero;fill:#3c6e71;fill-opacity:1;" d="M 108.003906 210.277344 C 108.003906 208.875 108.421875 207.523438 109.21875 206.359375 C 111.382812 203.210938 115.703125 202.40625 118.851562 204.570312 L 131.648438 213.355469 C 127.3125 207.535156 124.957031 202.503906 122.816406 197.914062 C 119.898438 191.664062 117.378906 186.265625 110.566406 180.9375 L 60.707031 146.714844 C 58.277344 145.050781 55.300781 144.484375 52.332031 145.125 C 49.339844 145.773438 46.710938 147.554688 44.925781 150.15625 L 33.660156 166.574219 C 32.238281 168.644531 31.484375 171.035156 31.484375 173.488281 C 31.484375 177.160156 33.21875 180.546875 36.125 182.535156 L 86.023438 216.785156 C 93.398438 221.199219 99.347656 221.609375 106.226562 222.082031 C 111.28125 222.433594 116.824219 222.820312 123.808594 224.777344 L 111.011719 215.992188 C 109.128906 214.699219 108.003906 212.5625 108.003906 210.277344 "/></g><path style=" stroke:none;fill-rule:nonzero;fill:#3c6e71;fill-opacity:1;" d="M 143.492188 229.882812 C 142.90625 230.734375 142.148438 231.425781 141.285156 231.933594 L 307.816406 346.234375 L 311.144531 341.390625 L 144.613281 227.089844 C 144.449219 228.085938 144.070312 229.035156 143.492188 229.882812 "/><g clip-rule="nonzero" clip-path="url(#34f668494e)"><path style=" stroke:none;fill-rule:nonzero;fill:#3c6e71;fill-opacity:1;" d="M 309.144531 347.265625 C 313.457031 350.875 314.390625 354.652344 315.222656 358.003906 C 315.921875 360.816406 316.46875 363.039062 318.84375 364.667969 C 321.460938 366.460938 324.613281 367.132812 327.726562 366.554688 C 330.839844 365.972656 333.542969 364.214844 335.339844 361.605469 L 335.414062 361.5 C 336.738281 359.558594 337.460938 357.246094 337.460938 354.847656 C 337.460938 350.925781 335.535156 347.269531 332.308594 345.054688 C 329.9375 343.425781 327.664062 343.710938 324.785156 344.070312 C 321.363281 344.5 317.5 344.984375 312.582031 342.261719 L 309.144531 347.265625 "/></g><path style=" stroke:none;fill-rule:nonzero;fill:#3c6e71;fill-opacity:1;" d="M 142.105469 228.933594 C 142.710938 228.054688 143.027344 227.03125 143.027344 225.964844 C 143.027344 224.234375 142.175781 222.613281 140.75 221.632812 L 117.902344 205.953125 C 115.515625 204.316406 112.242188 204.925781 110.605469 207.3125 C 110 208.191406 109.683594 209.214844 109.683594 210.277344 C 109.683594 212.007812 110.535156 213.628906 111.960938 214.609375 L 134.808594 230.289062 C 135.964844 231.082031 137.359375 231.378906 138.738281 231.125 C 140.117188 230.867188 141.3125 230.089844 142.105469 228.933594 "/><g style="fill:#3c6e71;fill-opacity:1;"><g transform="translate(53.800782, 116.495863)"><path style="stroke:none" d="M 64.828125 -5.515625 C 62.441406 -3.953125 59.425781 -2.503906 55.78125 -1.171875 C 52.144531 0.148438 48.1875 0.8125 43.90625 0.8125 C 36.34375 0.8125 29.6875 -0.851562 23.9375 -4.1875 C 18.1875 -7.519531 13.765625 -12.007812 10.671875 -17.65625 C 7.578125 -23.3125 6.03125 -29.539062 6.03125 -36.34375 C 6.03125 -43.625 7.59375 -50.175781 10.71875 -56 C 13.851562 -61.820312 18.191406 -66.378906 23.734375 -69.671875 C 29.285156 -72.972656 35.566406 -74.625 42.578125 -74.625 C 46.722656 -74.625 50.597656 -74.078125 54.203125 -72.984375 C 57.816406 -71.898438 61.050781 -70.472656 63.90625 -68.703125 L 59.921875 -59.421875 C 54.273438 -63.234375 48.59375 -65.140625 42.875 -65.140625 C 38.113281 -65.140625 33.707031 -63.878906 29.65625 -61.359375 C 25.601562 -58.835938 22.367188 -55.414062 19.953125 -51.09375 C 17.535156 -46.769531 16.328125 -42.023438 16.328125 -36.859375 C 16.328125 -31.546875 17.429688 -26.742188 19.640625 -22.453125 C 21.859375 -18.171875 25.023438 -14.820312 29.140625 -12.40625 C 33.265625 -9.988281 38.015625 -8.78125 43.390625 -8.78125 C 49.992188 -8.78125 55.742188 -10.648438 60.640625 -14.390625 Z M 64.828125 -5.515625 "/></g></g><g style="fill:#3c6e71;fill-opacity:1;"><g transform="translate(124.653885, 116.495863)"><path style="stroke:none" d="M 3.46875 -5.40625 C 3.46875 -6.90625 4.007812 -8.195312 5.09375 -9.28125 C 6.1875 -10.375 7.445312 -10.921875 8.875 -10.921875 C 10.175781 -10.921875 11.382812 -10.375 12.5 -9.28125 C 13.625 -8.195312 14.1875 -6.90625 14.1875 -5.40625 C 14.1875 -3.84375 13.640625 -2.550781 12.546875 -1.53125 C 11.460938 -0.507812 10.238281 0 8.875 0 C 7.445312 0 6.1875 -0.507812 5.09375 -1.53125 C 4.007812 -2.550781 3.46875 -3.84375 3.46875 -5.40625 Z M 3.46875 -5.40625 "/></g></g><g style="fill:#3c6e71;fill-opacity:1;"><g transform="translate(141.90774, 116.495863)"><path style="stroke:none" d="M 84.015625 -76.15625 L 84.015625 0 L 74.21875 0 L 74.21875 -47.78125 L 47.0625 -9.296875 L 46.859375 -9.296875 L 20.21875 -46.453125 L 20.21875 0 L 10.625 0 L 10.625 -76.15625 L 10.71875 -76.15625 L 47.0625 -24.703125 L 83.921875 -76.15625 Z M 84.015625 -76.15625 "/></g></g><g style="fill:#3c6e71;fill-opacity:1;"><g transform="translate(236.548702, 116.495863)"><path style="stroke:none" d="M 3.46875 -5.40625 C 3.46875 -6.90625 4.007812 -8.195312 5.09375 -9.28125 C 6.1875 -10.375 7.445312 -10.921875 8.875 -10.921875 C 10.175781 -10.921875 11.382812 -10.375 12.5 -9.28125 C 13.625 -8.195312 14.1875 -6.90625 14.1875 -5.40625 C 14.1875 -3.84375 13.640625 -2.550781 12.546875 -1.53125 C 11.460938 -0.507812 10.238281 0 8.875 0 C 7.445312 0 6.1875 -0.507812 5.09375 -1.53125 C 4.007812 -2.550781 3.46875 -3.84375 3.46875 -5.40625 Z M 3.46875 -5.40625 "/></g></g><g style="fill:#3c6e71;fill-opacity:1;"><g transform="translate(253.802569, 116.495863)"><path style="stroke:none" d="M 51.25 0 L 33.890625 -27.265625 C 33.347656 -27.191406 32.53125 -27.15625 31.4375 -27.15625 L 20.515625 -27.15625 L 20.515625 0 L 10.625 0 L 10.625 -73.8125 L 30.328125 -73.8125 C 35.359375 -73.8125 39.847656 -72.925781 43.796875 -71.15625 C 47.742188 -69.382812 50.835938 -66.78125 53.078125 -63.34375 C 55.328125 -59.90625 56.453125 -55.769531 56.453125 -50.9375 C 56.453125 -46.382812 55.445312 -42.203125 53.4375 -38.390625 C 51.4375 -34.578125 48.359375 -31.679688 44.203125 -29.703125 L 62.78125 0 Z M 31.234375 -36.75 C 36.546875 -36.75 40.375 -38.144531 42.71875 -40.9375 C 45.070312 -43.726562 46.25 -46.925781 46.25 -50.53125 C 46.25 -52.707031 45.753906 -54.851562 44.765625 -56.96875 C 43.773438 -59.082031 42.207031 -60.832031 40.0625 -62.21875 C 37.925781 -63.613281 35.222656 -64.3125 31.953125 -64.3125 L 20.515625 -64.3125 L 20.515625 -36.75 Z M 31.234375 -36.75 "/></g></g></g></svg>